<svg xmlns="http://www.w3.org/2000/svg" viewBox="0 0 512 512">
  <defs>
    <linearGradient id="bg-gradient" x1="0%" y1="0%" x2="100%" y2="100%">
      <stop offset="0%" stop-color="#F0F8FF" />
      <stop offset="100%" stop-color="#E6F0FA" />
    </linearGradient>
    <linearGradient id="wave-gradient" x1="20%" y1="0%" x2="80%" y2="100%">
      <stop offset="0%" stop-color="#7ED4E6" />
      <stop offset="50%" stop-color="#5D9CEC" />
      <stop offset="100%" stop-color="#9B6B9E" />
    </linearGradient>
    <linearGradient id="leaf-gradient" x1="0%" y1="30%" x2="100%" y2="80%">
      <stop offset="0%" stop-color="#8FBC8F" />
      <stop offset="50%" stop-color="#F4A460" />
      <stop offset="100%" stop-color="#D87093" />
    </linearGradient>
    <filter id="glow">
      <feGaussianBlur stdDeviation="1.5" result="coloredBlur"/>
      <feMerge>
        <feMergeNode in="coloredBlur"/>
        <feMergeNode in="SourceGraphic"/>
      </feMerge>
    </filter>
  </defs>

  <circle cx="256" cy="256" r="240" fill="url(#bg-gradient)" stroke="#E6F0FA" stroke-width="2"/>

  <g transform="translate(140, 110) scale(0.55)">
    <path d="M160,300 C80,300 40,220 60,160 C80,100 140,80 180,120 C220,160 280,180 320,140 C360,100 340,60 300,40 C220,10 100,40 40,140 C-20,240 60,340 180,360 C260,373 340,340 380,280 C400,250 410,220 415,190" fill="none" stroke="url(#wave-gradient)" stroke-width="12" stroke-linecap="round"/>
    <path d="M80,240 C100,210 130,200 160,210 C190,220 210,250 230,280 C250,310 280,320 310,310" fill="none" stroke="url(#wave-gradient)" stroke-width="8" stroke-linecap="round" opacity="0.7"/>

    <path d="M220,130 Q240,60 300,50 Q360,40 380,100 Q400,160 340,190 Q280,220 240,180 L220,130 Z" fill="url(#leaf-gradient)" opacity="0.9"/>
    <path d="M300,160 Q330,120 380,120 Q430,120 440,160 Q450,200 400,220 Q350,240 320,200 L300,160 Z" fill="url(#leaf-gradient)" opacity="0.8"/>
    <path d="M280,240 C320,280 360,300 400,290 C440,280 460,240 470,200 C480,160 460,120 420,100" fill="none" stroke="url(#leaf-gradient)" stroke-width="10" stroke-linecap="round"/>

    <g filter="url(#glow)">
      <circle cx="180" cy="180" r="5" fill="#A0E7FF"/>
      <circle cx="250" cy="250" r="5" fill="#A0E7FF"/>
      <circle cx="340" cy="200" r="5" fill="#A0E7FF"/>
      <path d="M180,180 L220,220 L250,250 M250,250 L290,220 L340,200" stroke="#A0E7FF" stroke-width="3" fill="none" stroke-linecap="round"/>
    </g>
  </g>

  <text x="256" y="430" text-anchor="middle" font-family="'Montserrat', sans-serif" font-size="48" font-weight="500" letter-spacing="4" fill="#374151">SOLACE</text>
</svg>